<?xml version="1.0" encoding="UTF-8"?>
<svg xmlns="http://www.w3.org/2000/svg" width="48" height="48" viewBox="0 0 92 92">
  <path style="fill:#1A73E8" d="M22.367 30.57a9.667 9.667 0 0 1 2.887.434 78.965 78.965 0 0 1 11.41-10.5 9.704 9.704 0 0 1-.273-2.274c0-1.085.183-2.125.507-3.101a71.618 71.618 0 0 0-15.046-8.277 46.195 46.195 0 0 0-12.915 11.91 72.41 72.41 0 0 0 9.192 12.785 9.658 9.658 0 0 1 4.238-.977Zm-9.789 9.785c0-1.375.29-2.683.8-3.867a78.801 78.801 0 0 1-8.48-11.136A45.776 45.776 0 0 0 0 46a45.752 45.752 0 0 0 6.477 23.531c1.468-8.277 4.253-16.094 8.101-23.265a9.738 9.738 0 0 1-2-5.91ZM46.176 8.441c2.48 0 4.87.946 6.68 2.645a77.92 77.92 0 0 1 16.078-4.957A45.796 45.796 0 0 0 46 0a45.864 45.864 0 0 0-16.18 2.938 78.888 78.888 0 0 1 11.383 6.87 9.73 9.73 0 0 1 4.973-1.367ZM60.812 54.54a9.71 9.71 0 0 1 2.543-3.281 71.584 71.584 0 0 0-13.359-24.016 9.791 9.791 0 0 1-3.82.774 9.749 9.749 0 0 1-5.688-1.832 72.005 72.005 0 0 0-9.812 9.015 9.74 9.74 0 0 1 1.476 5.156 9.698 9.698 0 0 1-.445 2.934 71.191 71.191 0 0 0 29.105 11.25Zm12.696 13.21a78.95 78.95 0 0 1 .203 5.61c0 3.32-.211 6.59-.61 9.804 7.797-5.7 13.739-13.789 16.735-23.195a78.12 78.12 0 0 1-10.902 1.828 9.822 9.822 0 0 1-5.426 5.953ZM58.52 61.117c-11.356-1.883-21.883-6.215-31.047-12.422a9.754 9.754 0 0 1-7.114 1.242 71.169 71.169 0 0 0-7.996 27.426 46.06 46.06 0 0 0 15.727 11.02 78.282 78.282 0 0 1 30.43-27.266Zm18.359-49.21a71.043 71.043 0 0 0-20.969 5.34 9.703 9.703 0 0 1-.953 5.28 78.435 78.435 0 0 1 14.848 26.457 9.785 9.785 0 0 1 8.843 5.973 71.344 71.344 0 0 0 12.895-2.52A46.58 46.58 0 0 0 92 46c0-13.52-5.836-25.68-15.121-34.094ZM63.44 66.343a71.5 71.5 0 0 0-28.617 24.285A46.242 46.242 0 0 0 46 92a45.779 45.779 0 0 0 19.41-4.297 71.342 71.342 0 0 0 1.453-14.344c0-1.777-.082-3.535-.215-5.273a9.82 9.82 0 0 1-3.207-1.742Zm0 0"></path>
</svg>
